<svg width="181" height="176" viewBox="0 0 181 176" fill="none" xmlns="http://www.w3.org/2000/svg">
<path d="M80.3411 0.628294C38.6266 5.16699 5.07359 38.7533 0.539402 79.6016C-3.99478 122.265 20.4898 160.39 57.6701 174.914C60.3907 175.822 63.1112 174.006 63.1112 170.376V155.852C63.1112 155.852 59.4838 156.759 54.9496 156.759C42.2539 156.759 36.8129 145.867 35.9061 139.512C34.9992 135.881 33.1855 133.158 30.465 130.435C27.7445 129.527 26.8377 129.527 26.8377 128.62C26.8377 126.804 29.5582 126.804 30.465 126.804C35.9061 126.804 40.4402 133.158 42.2539 135.881C46.7881 143.143 52.2291 144.959 54.9496 144.959C58.577 144.959 61.2975 144.051 63.1112 143.143C64.018 136.789 66.7385 130.435 72.1795 126.804C51.3223 122.265 35.9061 110.465 35.9061 90.4945C35.9061 80.5093 40.4402 70.5242 46.7881 63.2623C45.8813 61.4468 44.9744 56.9081 44.9744 50.5539C44.9744 46.923 44.9744 41.4766 47.6949 36.0301C47.6949 36.0301 60.3907 36.0301 73.0864 47.8307C77.6206 46.0153 83.9684 45.1075 90.3163 45.1075C96.6641 45.1075 103.012 46.0153 108.453 47.8307C120.242 36.0301 133.844 36.0301 133.844 36.0301C135.658 41.4766 135.658 46.923 135.658 50.5539C135.658 57.8159 134.751 61.4468 133.844 63.2623C140.192 70.5242 144.727 79.6016 144.727 90.4945C144.727 110.465 129.31 122.265 108.453 126.804C113.894 131.343 117.521 139.512 117.521 147.682V171.283C117.521 174.006 120.242 176.73 123.869 175.822C157.422 162.206 181 129.527 181 91.4022C181 36.9379 134.751 -5.72588 80.3411 0.628294Z" fill="#F0F6FC"/>
</svg>
